<svg class="{{ .class }}" aria-label="Reddit" role="img" width="32" height="32" viewBox="0 0 512 512"><path fill-rule="evenodd" d="M375 146a32 32 0 1 0-29-46l-65-13c-5-1-9 2-10 6l-22 97c-45 1-85 15-113 36a42 42 0 1 0-45 69l-1 12c0 65 74 117 166 117s166-52 166-117l-1-11a42 42 0 1 0-44-69c-28-21-67-35-111-37l19-86 58 13a32 32 0 0 0 32 29zM190 353c2-1 4 0 5 1 15 11 38 18 61 18s46-6 61-18a7 7 0 0 1 8 10c-18 14-44 21-69 21-25-1-51-7-69-21a6 6 0 0 1 3-11zm23-44a31 31 0 1 1-44-44 31 31 0 0 1 44 44zm130 0a31 31 0 1 0-44-44 31 31 0 0 0 44 44z"/></svg>