<svg aria-label="Spotify" role="img" width="32" height="32" viewBox="-200-200 2800 2800"><path d="M1200 0C540 0 0 540 0 1200s540 1200 1200 1200 1200-540 1200-1200S1866 0 1200 0zm552.1 1734c-24 35.9-66 48-102.1 24-282-174-636-210.1-1056.1-114.1-41.8 12.2-77.9-17.9-89.9-53.9-12-42.1 18-78 54-90 456-102.1 852-60 1164 132 42 18 47.9 65.9 30.1 102zm144-330c-30.1 42-84.1 60-126.2 30-323.9-198-815.9-258-1193.9-138-47.9 12-102-12-114-60-12-48 12-102.1 60-114.1C960 990 1500 1056.1 1872 1284c36.1 18.1 54 78 24.1 120zm12-336C1524 840 882 816 516 930.1c-60 17.9-120-18.1-138-72.1-18-60.1 18-120 72-138.1 426-126 1128-102 1572.1 162.1 53.9 30 71.9 102 41.9 156-29.9 42.1-102 59.9-155.9 30"/></svg>
